<?xml version="1.0" standalone="no"?>
<!DOCTYPE svg PUBLIC "-//W3C//DTD SVG 20010904//EN"
 "http://www.w3.org/TR/2001/REC-SVG-20010904/DTD/svg10.dtd">
<svg version="1.0" xmlns="http://www.w3.org/2000/svg"
 width="512.000000pt" height="512.000000pt" viewBox="0 0 512.000000 512.000000"
 preserveAspectRatio="xMidYMid meet">
<metadata>
Created by potrace 1.14, written by Peter Selinger 2001-2017
</metadata>
<g transform="translate(0.000000,512.000000) scale(0.100000,-0.100000)"
fill="#000000" stroke="none">
<path d="M2515 4692 c-43 -6 -151 -43 -176 -60 -191 -128 -257 -354 -161 -551
26 -53 95 -133 142 -165 25 -16 25 -19 26 -151 1 -131 0 -135 -20 -136 -12 0
-226 -2 -476 -3 -493 -3 -499 -3 -625 -61 -65 -29 -175 -108 -201 -144 -7 -9
-24 -29 -39 -46 -38 -43 -101 -179 -117 -255 -12 -54 -15 -235 -13 -1110 2
-949 3 -1051 19 -1105 33 -118 86 -207 170 -290 71 -69 86 -80 163 -119 145
-72 81 -69 1318 -70 611 0 1139 2 1175 6 261 30 471 213 547 475 15 52 16 160
18 1096 1 763 -1 1054 -10 1100 -38 200 -177 379 -360 462 -126 58 -131 58
-635 61 -256 1 -470 3 -476 3 -8 1 -11 44 -10 137 1 125 3 136 21 146 32 18
111 104 137 151 125 224 17 515 -226 604 -42 16 -155 31 -191 25z m-743 -1567
c10 -38 20 -79 22 -90 2 -11 18 -76 34 -145 17 -69 45 -186 63 -260 17 -74 40
-152 51 -173 22 -45 87 -94 137 -104 47 -9 915 -8 962 1 50 9 114 58 137 103
15 29 106 381 103 395 0 2 10 41 23 88 13 47 24 90 25 95 0 6 9 45 18 88 l18
78 155 -2 c139 -1 161 -3 200 -23 53 -27 99 -81 111 -132 5 -22 9 -480 9
-1029 0 -942 -1 -992 -19 -1031 -23 -50 -63 -91 -110 -112 -32 -14 -155 -16
-1136 -18 -1178 -1 -1159 -2 -1215 48 -14 13 -37 39 -50 58 l-25 35 0 1031 0
1030 28 42 c27 41 83 85 123 95 10 3 86 4 168 3 l150 -1 18 -70z m1151 69 c3
-3 2 -17 -3 -30 -6 -14 -12 -35 -14 -47 -9 -39 -14 -60 -41 -167 -15 -58 -28
-109 -29 -115 -2 -5 -6 -22 -10 -36 l-7 -26 -260 0 -259 1 -10 35 c-5 20 -29
116 -53 214 l-44 177 362 0 c199 0 364 -3 368 -6z"/>
<path d="M1860 1911 c-45 -11 -99 -55 -125 -102 -29 -55 -33 -130 -10 -187 64
-151 273 -171 369 -34 40 57 48 149 18 209 -49 95 -149 140 -252 114z"/>
<path d="M3115 1901 c-107 -49 -155 -170 -110 -277 47 -113 179 -161 289 -105
155 79 155 297 1 378 -45 24 -133 25 -180 4z"/>
<path d="M354 2119 c-56 -22 -89 -50 -117 -104 -21 -38 -22 -53 -22 -310 0
-251 1 -272 20 -305 45 -79 112 -119 195 -116 90 3 162 51 196 131 16 39 20
507 4 565 -30 113 -165 181 -276 139z"/>
<path d="M4655 2130 c-71 -16 -125 -59 -156 -125 -16 -35 -18 -70 -19 -290 -1
-286 5 -315 70 -376 39 -36 99 -59 157 -59 74 0 170 78 192 156 4 16 7 144 7
284 -2 274 -4 287 -60 348 -41 46 -130 75 -191 62z"/>
</g>
</svg>
